<svg width="800" height="600" xmlns="http://www.w3.org/2000/svg">
  <!-- Background gradient -->
  <defs>
    <linearGradient id="bg-gradient" x1="0%" y1="0%" x2="100%" y2="100%">
      <stop offset="0%" stop-color="#1cc88a" />
      <stop offset="100%" stop-color="#169b6b" />
    </linearGradient>
  </defs>
  
  <!-- Background rectangle -->
  <rect width="800" height="600" fill="url(#bg-gradient)" />
  
  <!-- Abstract shapes -->
  <circle cx="150" cy="200" r="100" fill="rgba(255,255,255,0.1)" />
  <circle cx="650" cy="400" r="120" fill="rgba(255,255,255,0.1)" />
  
  <!-- Decorative elements -->
  <path d="M0,400 Q200,300 400,400 T800,400" stroke="rgba(255,255,255,0.2)" stroke-width="5" fill="none" />
  
  <!-- Registration form illustration -->
  <rect x="300" y="150" width="200" height="250" rx="10" ry="10" fill="rgba(255,255,255,0.2)" stroke="white" stroke-width="3" />
  
  <!-- Form lines -->
  <line x1="330" y1="200" x2="470" y2="200" stroke="white" stroke-width="2" />
  <line x1="330" y1="240" x2="470" y2="240" stroke="white" stroke-width="2" />
  <line x1="330" y1="280" x2="470" y2="280" stroke="white" stroke-width="2" />
  <line x1="330" y1="320" x2="470" y2="320" stroke="white" stroke-width="2" />
  
  <!-- Form icons -->
  <circle cx="350" cy="180" r="10" fill="white" />
  <circle cx="350" cy="220" r="10" fill="white" />
  <circle cx="350" cy="260" r="10" fill="white" />
  <circle cx="350" cy="300" r="10" fill="white" />
  
  <!-- Submit button -->
  <rect x="350" y="350" width="100" height="30" rx="15" ry="15" fill="white" />
  
  <!-- ID Card illustration -->
  <rect x="100" y="350" width="150" height="100" rx="5" ry="5" fill="rgba(255,255,255,0.3)" stroke="white" stroke-width="2" />
  <circle cx="140" cy="380" r="20" fill="rgba(255,255,255,0.5)" />
  <line x1="120" y1="410" x2="230" y2="410" stroke="white" stroke-width="2" />
  <line x1="120" y1="430" x2="200" y2="430" stroke="white" stroke-width="2" />
  
  <!-- Fingerprint pattern -->
  <g transform="translate(650, 200) scale(0.8)">
    <path d="M0,0 C20,-20 50,-20 70,0 S90,40 70,60 S30,80 10,60 S-20,20 0,0" 
          stroke="rgba(255,255,255,0.5)" stroke-width="3" fill="none" />
    <path d="M5,10 C20,-5 45,-5 60,10 S75,40 60,55 S25,70 10,55 S-10,25 5,10" 
          stroke="rgba(255,255,255,0.5)" stroke-width="2" fill="none" />
    <path d="M10,20 C20,10 40,10 50,20 S60,40 50,50 S20,60 10,50 S0,30 10,20" 
          stroke="rgba(255,255,255,0.5)" stroke-width="2" fill="none" />
  </g>
  
  <!-- Grid pattern -->
  <g stroke="rgba(255,255,255,0.1)" stroke-width="1">
    <line x1="0" y1="100" x2="800" y2="100" />
    <line x1="0" y1="200" x2="800" y2="200" />
    <line x1="0" y1="300" x2="800" y2="300" />
    <line x1="0" y1="400" x2="800" y2="400" />
    <line x1="0" y1="500" x2="800" y2="500" />
    
    <line x1="100" y1="0" x2="100" y2="600" />
    <line x1="200" y1="0" x2="200" y2="600" />
    <line x1="300" y1="0" x2="300" y2="600" />
    <line x1="400" y1="0" x2="400" y2="600" />
    <line x1="500" y1="0" x2="500" y2="600" />
    <line x1="600" y1="0" x2="600" y2="600" />
    <line x1="700" y1="0" x2="700" y2="600" />
  </g>
  
  <!-- Calendar icon -->
  <rect x="500" y="100" width="80" height="80" rx="5" ry="5" fill="rgba(255,255,255,0.3)" stroke="white" stroke-width="2" />
  <line x1="520" y1="100" x2="520" y2="80" stroke="white" stroke-width="2" />
  <line x1="560" y1="100" x2="560" y2="80" stroke="white" stroke-width="2" />
  <line x1="500" y1="120" x2="580" y2="120" stroke="white" stroke-width="2" />
  
  <!-- Calendar grid -->
  <line x1="520" y1="140" x2="520" y2="180" stroke="white" stroke-width="1" />
  <line x1="540" y1="140" x2="540" y2="180" stroke="white" stroke-width="1" />
  <line x1="560" y1="140" x2="560" y2="180" stroke="white" stroke-width="1" />
  
  <line x1="500" y1="140" x2="580" y2="140" stroke="white" stroke-width="1" />
  <line x1="500" y1="160" x2="580" y2="160" stroke="white" stroke-width="1" />
</svg>